<svg id="Layer_1" data-name="Layer 1" xmlns="http://www.w3.org/2000/svg" viewBox="0 0 220.96 244.81"><defs><style>.cls-1{fill:#231f20;}</style></defs><title>willow</title><path class="cls-1" d="M188.9,138.52c-.07-.32-.2-.84-.38-1.49C208.47,156.26,221,149.44,221,149.44c-7.57-6.66-15.47-22.95-18.24-32.36-3.91-13.28-.65-29.71-12.28-56.69C176.91,29,152.78,13.54,111.57,15.57,125.72,5.05,152,9.78,152,9.78c-6.35-6.57-44.95-15.21-77.33-5.25C47.32,12.93,40.3,36.06,38.77,43.08c-20.36-6.43-78.67,67.58,5.05,150.75,0,0-7.06-20.09-1.4-34.94,0,0,9.67,29.32,36.73,38.74,0,0-13-40.12,9.71-56.78,14.08,70.76-24.8,93.68-24.8,93.68,28.42-10.53,35-11,41.32-7.37,4.68,2.68,4.09,12.54,4.09,12.54,19.74-8.38,31.84.25,40.95,3.69s15.26-.37,15.26-.37c-30.61-5.46-38.05-53-37.87-79.8,10.06,14,32.75,40.35,59.09,36,0,0-14.57-12.32-16.06-26.73,0,0,24.63,15.25,48.72,6.27C219.56,178.75,193.64,160,188.9,138.52ZM41.47,44.1l-.21.26c-.06,0-.13-.07-.19-.12Z" transform="translate(0)"/></svg>